<svg t="1734248802217" class="icon" viewBox="0 0 1024 1024" version="1.1" xmlns="http://www.w3.org/2000/svg"
	p-id="11021" width="200" height="200">
	<path
		d="M978.976 442.341l-80.57-12.396c-21.48-3.316-43.889-20.565-49.9-38.304-5.924-17.737-17.34-75.317-4.48-92.872l48.185-65.742c12.884-17.554 10.83-44.436-4.541-59.781l-35.267-35.234c-15.373-15.407-42.262-17.494-59.783-4.54l-65.74 48.184c-17.555 12.823-45.392 16.572-61.904 8.223-16.511-8.282-65.958-41.183-69.21-62.61l-12.432-80.53c-3.28-21.486-23.784-39.102-45.514-39.102h-49.901c-21.696 0-42.201 17.616-45.48 39.041l-12.405 80.53c-3.314 21.488-20.564 43.889-38.303 49.907-17.704 5.95-75.31 17.365-92.865 4.541l-65.707-48.183c-17.556-12.893-44.443-10.804-59.823 4.54l-35.259 35.234c-15.381 15.407-17.433 42.288-4.576 59.781l48.247 65.742c12.83 17.555 16.57 45.427 8.228 61.936-8.317 16.512-41.157 65.924-62.616 69.24l-80.529 12.397c-21.514 3.26-39.07 23.756-39.07 45.488v49.9c0 21.73 17.555 42.172 39.035 45.487l80.537 12.397c21.48 3.314 43.888 20.566 49.9 38.304 5.924 17.738 17.345 75.371 4.515 92.873L133.5 792.529c-12.832 17.55-10.805 44.44 4.576 59.786l35.26 35.3c15.379 15.338 42.26 17.426 59.817 4.535l65.713-48.24c17.554-12.841 45.392-16.512 61.93-8.229 16.513 8.284 65.924 41.184 69.238 62.61l12.404 80.529c3.28 21.486 23.75 39.041 45.481 39.041h49.9c21.73 0 42.234-17.555 45.515-39.041l12.431-80.53c3.253-21.485 20.503-43.888 38.242-49.845 17.712-5.955 75.318-17.375 92.839-4.536l65.774 48.241c17.548 12.892 44.437 10.804 59.783-4.535l35.267-35.3c15.372-15.346 17.425-42.291 4.541-59.786l-48.185-65.737c-12.86-17.562-16.574-45.365-8.257-61.877 8.318-16.572 41.158-65.985 62.61-69.3l80.53-12.397c21.486-3.315 39.04-23.757 39.04-45.487v-49.9c0.027-21.732-17.529-42.235-38.974-45.49zM512.868 712.543c-110.306 0-199.737-89.49-199.737-199.738 0-110.358 89.43-199.794 199.737-199.794 110.333 0 199.736 89.436 199.736 199.794 0 110.248-89.402 199.738-199.736 199.738zM392.253 512.804c0-31.602 13.014-62.974 35.326-85.314 22.34-22.345 53.738-35.299 85.29-35.299s62.975 12.954 85.288 35.3c22.314 22.34 35.326 53.71 35.326 85.313 0 31.554-13.013 62.922-35.326 85.263-22.313 22.348-53.737 35.294-85.289 35.294s-62.948-12.946-85.29-35.294c-22.31-22.34-35.325-53.709-35.325-85.263z m0 0"
		p-id="11022" fill="#ffffff"></path>
</svg>